<svg xmlns="http://www.w3.org/2000/svg" xmlns:xlink="http://www.w3.org/1999/xlink" width="500" zoomAndPan="magnify" viewBox="0 0 375 374.999991" height="500" preserveAspectRatio="xMidYMid meet" version="1.2"><defs><clipPath id="f47daf056a"><path d="M 102 237 L 142 237 L 142 277 L 102 277 Z M 102 237 "/></clipPath><clipPath id="7cde98557b"><path d="M 111.542969 231.738281 L 147.140625 246.964844 L 131.914062 282.566406 L 96.316406 267.339844 Z M 111.542969 231.738281 "/></clipPath><clipPath id="a48c506bb6"><path d="M 129.34375 239.351562 C 119.511719 235.148438 108.132812 239.710938 103.929688 249.539062 C 99.722656 259.371094 104.285156 270.75 114.117188 274.953125 C 123.945312 279.160156 135.324219 274.597656 139.527344 264.765625 C 143.734375 254.9375 139.171875 243.558594 129.34375 239.351562 Z M 129.34375 239.351562 "/></clipPath><clipPath id="8f22efde06"><path d="M 110 246 L 133 246 L 133 269 L 110 269 Z M 110 246 "/></clipPath><clipPath id="7ac9514e57"><path d="M 116.003906 242.859375 L 136.023438 251.421875 L 127.460938 271.441406 L 107.441406 262.878906 Z M 116.003906 242.859375 "/></clipPath><clipPath id="83f22a75c0"><path d="M 126.011719 247.140625 C 120.484375 244.777344 114.089844 247.34375 111.722656 252.871094 C 109.359375 258.398438 111.925781 264.796875 117.453125 267.160156 C 122.980469 269.523438 129.378906 266.960938 131.742188 261.429688 C 134.105469 255.902344 131.542969 249.507812 126.011719 247.140625 Z M 126.011719 247.140625 "/></clipPath><clipPath id="6b4ae92a7e"><path d="M 203 292 L 243 292 L 243 332 L 203 332 Z M 203 292 "/></clipPath><clipPath id="7f2efc1229"><path d="M 213.105469 286.675781 L 248.703125 301.902344 L 233.476562 337.503906 L 197.878906 322.277344 Z M 213.105469 286.675781 "/></clipPath><clipPath id="e509507011"><path d="M 230.90625 294.289062 C 221.074219 290.085938 209.695312 294.644531 205.492188 304.476562 C 201.285156 314.308594 205.847656 325.6875 215.675781 329.890625 C 225.507812 334.097656 236.886719 329.535156 241.089844 319.703125 C 245.296875 309.875 240.734375 298.496094 230.90625 294.289062 Z M 230.90625 294.289062 "/></clipPath><clipPath id="dd9f0bc1d7"><path d="M 212 301 L 235 301 L 235 323 L 212 323 Z M 212 301 "/></clipPath><clipPath id="613b96b635"><path d="M 217.566406 297.796875 L 237.585938 306.359375 L 229.023438 326.378906 L 209.003906 317.816406 Z M 217.566406 297.796875 "/></clipPath><clipPath id="32d3359ead"><path d="M 227.574219 302.078125 C 222.046875 299.714844 215.652344 302.28125 213.285156 307.808594 C 210.921875 313.335938 213.488281 319.730469 219.015625 322.097656 C 224.542969 324.460938 230.9375 321.894531 233.304688 316.367188 C 235.667969 310.839844 233.101562 304.445312 227.574219 302.078125 Z M 227.574219 302.078125 "/></clipPath><clipPath id="6ecb8ce7de"><path d="M 143 255 L 183 255 L 183 295 L 143 295 Z M 143 255 "/></clipPath><clipPath id="955e60537b"><path d="M 152.953125 249.453125 L 188.554688 264.679688 L 173.328125 300.277344 L 137.726562 285.050781 Z M 152.953125 249.453125 "/></clipPath><clipPath id="b010f46d9a"><path d="M 170.753906 257.066406 C 160.921875 252.859375 149.542969 257.421875 145.339844 267.25 C 141.132812 277.082031 145.695312 288.460938 155.527344 292.664062 C 165.355469 296.871094 176.734375 292.308594 180.941406 282.480469 C 185.144531 272.648438 180.582031 261.269531 170.753906 257.066406 Z M 170.753906 257.066406 "/></clipPath><clipPath id="8251be0d1d"><path d="M 152 263 L 175 263 L 175 286 L 152 286 Z M 152 263 "/></clipPath><clipPath id="3a10f2f459"><path d="M 157.414062 260.574219 L 177.433594 269.136719 L 168.871094 289.152344 L 148.855469 280.589844 Z M 157.414062 260.574219 "/></clipPath><clipPath id="5b05becb76"><path d="M 167.425781 264.855469 C 161.898438 262.488281 155.5 265.054688 153.136719 270.582031 C 150.769531 276.109375 153.335938 282.507812 158.863281 284.871094 C 164.390625 287.234375 170.789062 284.671875 173.152344 279.144531 C 175.515625 273.617188 172.953125 267.21875 167.425781 264.855469 Z M 167.425781 264.855469 "/></clipPath><clipPath id="04c8b21cb3"><path d="M 188 248 L 228 248 L 228 288 L 188 288 Z M 188 248 "/></clipPath><clipPath id="af917f94e8"><path d="M 197.957031 242.6875 L 233.558594 257.914062 L 218.332031 293.515625 L 182.730469 278.289062 Z M 197.957031 242.6875 "/></clipPath><clipPath id="869ee8e32a"><path d="M 215.757812 250.300781 C 205.929688 246.097656 194.550781 250.65625 190.34375 260.488281 C 186.140625 270.320312 190.703125 281.699219 200.53125 285.902344 C 210.363281 290.105469 221.742188 285.546875 225.945312 275.714844 C 230.152344 265.882812 225.589844 254.507812 215.757812 250.300781 Z M 215.757812 250.300781 "/></clipPath><clipPath id="7048a3c0d6"><path d="M 197 257 L 220 257 L 220 279 L 197 279 Z M 197 257 "/></clipPath><clipPath id="5faf9cb71f"><path d="M 202.421875 253.808594 L 222.4375 262.371094 L 213.878906 282.386719 L 193.859375 273.828125 Z M 202.421875 253.808594 "/></clipPath><clipPath id="18a591d521"><path d="M 212.429688 258.089844 C 206.902344 255.726562 200.503906 258.289062 198.140625 263.816406 C 195.777344 269.347656 198.339844 275.742188 203.867188 278.109375 C 209.394531 280.472656 215.792969 277.90625 218.160156 272.378906 C 220.523438 266.851562 217.957031 260.453125 212.429688 258.089844 Z M 212.429688 258.089844 "/></clipPath><clipPath id="97e5bc0772"><path d="M 233 241 L 273 241 L 273 281 L 233 281 Z M 233 241 "/></clipPath><clipPath id="2d10cd97b9"><path d="M 243.070312 235.675781 L 278.671875 250.902344 L 263.445312 286.503906 L 227.84375 271.277344 Z M 243.070312 235.675781 "/></clipPath><clipPath id="5e3a449b37"><path d="M 260.871094 243.289062 C 251.039062 239.085938 239.664062 243.648438 235.457031 253.476562 C 231.253906 263.308594 235.8125 274.6875 245.644531 278.890625 C 255.476562 283.097656 266.851562 278.535156 271.058594 268.703125 C 275.261719 258.875 270.703125 247.496094 260.871094 243.289062 Z M 260.871094 243.289062 "/></clipPath><clipPath id="8796edf910"><path d="M 242 250 L 265 250 L 265 272 L 242 272 Z M 242 250 "/></clipPath><clipPath id="d60d1c47dc"><path d="M 247.535156 246.796875 L 267.550781 255.359375 L 258.988281 275.378906 L 238.972656 266.816406 Z M 247.535156 246.796875 "/></clipPath><clipPath id="be2fb33d0e"><path d="M 257.542969 251.078125 C 252.015625 248.714844 245.617188 251.28125 243.253906 256.808594 C 240.890625 262.335938 243.453125 268.734375 248.980469 271.097656 C 254.507812 273.460938 260.90625 270.898438 263.269531 265.367188 C 265.632812 259.839844 263.070312 253.445312 257.542969 251.078125 Z M 257.542969 251.078125 "/></clipPath></defs><g id="76e50a46ec"><g style="fill:#8b5cf6;fill-opacity:1;"><g transform="translate(83.531101, 223.650556)"><path style="stroke:none" d="M 105.828125 -177.078125 C 125.804688 -177.078125 142.710938 -175.054688 156.546875 -171.015625 C 170.378906 -166.984375 180.832031 -161.160156 187.90625 -153.546875 C 194.976562 -145.941406 198.515625 -136.800781 198.515625 -126.125 C 198.515625 -116.820312 195.535156 -109.09375 189.578125 -102.9375 C 183.617188 -96.789062 174.992188 -92.335938 163.703125 -89.578125 C 176.378906 -87.035156 186.078125 -82.285156 192.796875 -75.328125 C 199.523438 -68.378906 202.890625 -59.410156 202.890625 -48.421875 C 202.890625 -31.203125 194.664062 -18.132812 178.21875 -9.21875 C 161.78125 -0.300781 137.648438 4.15625 105.828125 4.15625 C 74.015625 4.15625 49.882812 -0.300781 33.4375 -9.21875 C 16.988281 -18.132812 8.765625 -31.203125 8.765625 -48.421875 C 8.765625 -59.410156 12.125 -68.378906 18.84375 -75.328125 C 25.570312 -82.285156 35.273438 -87.035156 47.953125 -89.578125 C 36.660156 -92.335938 28.035156 -96.789062 22.078125 -102.9375 C 16.117188 -109.09375 13.140625 -116.820312 13.140625 -126.125 C 13.140625 -136.800781 16.675781 -145.941406 23.75 -153.546875 C 30.820312 -161.160156 41.273438 -166.984375 55.109375 -171.015625 C 68.941406 -175.054688 85.847656 -177.078125 105.828125 -177.078125 Z M 68.9375 -54.1875 C 68.9375 -49.644531 72.066406 -46.203125 78.328125 -43.859375 C 84.597656 -41.515625 93.765625 -40.34375 105.828125 -40.34375 C 117.890625 -40.34375 127.050781 -41.515625 133.3125 -43.859375 C 139.582031 -46.203125 142.71875 -49.644531 142.71875 -54.1875 C 142.71875 -58.644531 139.601562 -62.023438 133.375 -64.328125 C 127.15625 -66.628906 117.972656 -67.78125 105.828125 -67.78125 C 93.679688 -67.78125 84.492188 -66.628906 78.265625 -64.328125 C 72.046875 -62.023438 68.9375 -58.644531 68.9375 -54.1875 Z M 72.171875 -119.65625 C 72.171875 -115.507812 75.03125 -112.320312 80.75 -110.09375 C 86.476562 -107.863281 94.835938 -106.75 105.828125 -106.75 C 116.816406 -106.75 125.171875 -107.863281 130.890625 -110.09375 C 136.617188 -112.320312 139.484375 -115.507812 139.484375 -119.65625 C 139.484375 -123.8125 136.617188 -127.003906 130.890625 -129.234375 C 125.171875 -131.460938 116.816406 -132.578125 105.828125 -132.578125 C 94.835938 -132.578125 86.476562 -131.460938 80.75 -129.234375 C 75.03125 -127.003906 72.171875 -123.8125 72.171875 -119.65625 Z M 72.171875 -119.65625 "/></g></g><g clip-rule="nonzero" clip-path="url(#f47daf056a)"><g clip-rule="nonzero" clip-path="url(#7cde98557b)"><g clip-rule="nonzero" clip-path="url(#a48c506bb6)"><path style=" stroke:none;fill-rule:nonzero;fill:#8b5cf6;fill-opacity:1;" d="M 111.542969 231.738281 L 147.140625 246.964844 L 131.914062 282.566406 L 96.316406 267.339844 Z M 111.542969 231.738281 "/></g></g></g><g clip-rule="nonzero" clip-path="url(#8f22efde06)"><g clip-rule="nonzero" clip-path="url(#7ac9514e57)"><g clip-rule="nonzero" clip-path="url(#83f22a75c0)"><path style=" stroke:none;fill-rule:nonzero;fill:#121213;fill-opacity:1;" d="M 116.003906 242.859375 L 136.023438 251.421875 L 127.460938 271.441406 L 107.441406 262.878906 Z M 116.003906 242.859375 "/></g></g></g><g clip-rule="nonzero" clip-path="url(#6b4ae92a7e)"><g clip-rule="nonzero" clip-path="url(#7f2efc1229)"><g clip-rule="nonzero" clip-path="url(#e509507011)"><path style=" stroke:none;fill-rule:nonzero;fill:#8b5cf6;fill-opacity:1;" d="M 213.105469 286.675781 L 248.703125 301.902344 L 233.476562 337.503906 L 197.878906 322.277344 Z M 213.105469 286.675781 "/></g></g></g><g clip-rule="nonzero" clip-path="url(#dd9f0bc1d7)"><g clip-rule="nonzero" clip-path="url(#613b96b635)"><g clip-rule="nonzero" clip-path="url(#32d3359ead)"><path style=" stroke:none;fill-rule:nonzero;fill:#121213;fill-opacity:1;" d="M 217.566406 297.796875 L 237.585938 306.359375 L 229.023438 326.378906 L 209.003906 317.816406 Z M 217.566406 297.796875 "/></g></g></g><g clip-rule="nonzero" clip-path="url(#6ecb8ce7de)"><g clip-rule="nonzero" clip-path="url(#955e60537b)"><g clip-rule="nonzero" clip-path="url(#b010f46d9a)"><path style=" stroke:none;fill-rule:nonzero;fill:#8b5cf6;fill-opacity:1;" d="M 152.953125 249.453125 L 188.554688 264.679688 L 173.328125 300.277344 L 137.726562 285.050781 Z M 152.953125 249.453125 "/></g></g></g><g clip-rule="nonzero" clip-path="url(#8251be0d1d)"><g clip-rule="nonzero" clip-path="url(#3a10f2f459)"><g clip-rule="nonzero" clip-path="url(#5b05becb76)"><path style=" stroke:none;fill-rule:nonzero;fill:#121213;fill-opacity:1;" d="M 157.414062 260.574219 L 177.433594 269.136719 L 168.871094 289.152344 L 148.855469 280.589844 Z M 157.414062 260.574219 "/></g></g></g><g clip-rule="nonzero" clip-path="url(#04c8b21cb3)"><g clip-rule="nonzero" clip-path="url(#af917f94e8)"><g clip-rule="nonzero" clip-path="url(#869ee8e32a)"><path style=" stroke:none;fill-rule:nonzero;fill:#8b5cf6;fill-opacity:1;" d="M 197.957031 242.6875 L 233.558594 257.914062 L 218.332031 293.515625 L 182.730469 278.289062 Z M 197.957031 242.6875 "/></g></g></g><g clip-rule="nonzero" clip-path="url(#7048a3c0d6)"><g clip-rule="nonzero" clip-path="url(#5faf9cb71f)"><g clip-rule="nonzero" clip-path="url(#18a591d521)"><path style=" stroke:none;fill-rule:nonzero;fill:#121213;fill-opacity:1;" d="M 202.421875 253.808594 L 222.4375 262.371094 L 213.878906 282.386719 L 193.859375 273.828125 Z M 202.421875 253.808594 "/></g></g></g><g clip-rule="nonzero" clip-path="url(#97e5bc0772)"><g clip-rule="nonzero" clip-path="url(#2d10cd97b9)"><g clip-rule="nonzero" clip-path="url(#5e3a449b37)"><path style=" stroke:none;fill-rule:nonzero;fill:#8b5cf6;fill-opacity:1;" d="M 243.070312 235.675781 L 278.671875 250.902344 L 263.445312 286.503906 L 227.84375 271.277344 Z M 243.070312 235.675781 "/></g></g></g><g clip-rule="nonzero" clip-path="url(#8796edf910)"><g clip-rule="nonzero" clip-path="url(#d60d1c47dc)"><g clip-rule="nonzero" clip-path="url(#be2fb33d0e)"><path style=" stroke:none;fill-rule:nonzero;fill:#121213;fill-opacity:1;" d="M 247.535156 246.796875 L 267.550781 255.359375 L 258.988281 275.378906 L 238.972656 266.816406 Z M 247.535156 246.796875 "/></g></g></g></g></svg>