<svg xmlns="http://www.w3.org/2000/svg" xmlns:xlink="http://www.w3.org/1999/xlink" width="500" zoomAndPan="magnify" viewBox="0 0 375 374.999991" height="500" preserveAspectRatio="xMidYMid meet" version="1.2"><defs><clipPath id="84bf36174c"><path d="M 224 219 L 238 219 L 238 233 L 224 233 Z M 224 219 "/></clipPath><clipPath id="6064b79ee3"><path d="M 227.605469 217.882812 L 239.1875 222.835938 L 234.234375 234.414062 L 222.652344 229.460938 Z M 227.605469 217.882812 "/></clipPath><clipPath id="d9e2eb2a9e"><path d="M 233.398438 220.359375 C 230.199219 218.988281 226.5 220.472656 225.128906 223.671875 C 223.761719 226.871094 225.246094 230.570312 228.445312 231.9375 C 231.640625 233.304688 235.34375 231.824219 236.710938 228.625 C 238.078125 225.425781 236.59375 221.726562 233.398438 220.359375 Z M 233.398438 220.359375 "/></clipPath><clipPath id="e141c86faf"><path d="M 227 222 L 235 222 L 235 230 L 227 230 Z M 227 222 "/></clipPath><clipPath id="339580dad7"><path d="M 229.058594 221.5 L 235.570312 224.285156 L 232.785156 230.796875 L 226.273438 228.011719 Z M 229.058594 221.5 "/></clipPath><clipPath id="2ce587cd2e"><path d="M 232.316406 222.890625 C 230.515625 222.121094 228.433594 222.957031 227.667969 224.753906 C 226.898438 226.550781 227.730469 228.632812 229.53125 229.402344 C 231.328125 230.171875 233.410156 229.335938 234.179688 227.539062 C 234.945312 225.742188 234.113281 223.660156 232.316406 222.890625 Z M 232.316406 222.890625 "/></clipPath><clipPath id="6b6e33f402"><path d="M 257 237 L 271 237 L 271 251 L 257 251 Z M 257 237 "/></clipPath><clipPath id="71be24319a"><path d="M 260.644531 235.75 L 272.222656 240.703125 L 267.269531 252.285156 L 255.691406 247.332031 Z M 260.644531 235.75 "/></clipPath><clipPath id="df371aa60b"><path d="M 266.433594 238.226562 C 263.234375 236.859375 259.535156 238.34375 258.167969 241.542969 C 256.800781 244.738281 258.28125 248.441406 261.480469 249.808594 C 264.679688 251.175781 268.378906 249.691406 269.746094 246.496094 C 271.117188 243.296875 269.632812 239.597656 266.433594 238.226562 Z M 266.433594 238.226562 "/></clipPath><clipPath id="ba2afa8ede"><path d="M 260 240 L 268 240 L 268 248 L 260 248 Z M 260 240 "/></clipPath><clipPath id="4da217f0fb"><path d="M 262.09375 239.371094 L 268.605469 242.152344 L 265.820312 248.664062 L 259.3125 245.878906 Z M 262.09375 239.371094 "/></clipPath><clipPath id="26452ebc3c"><path d="M 265.351562 240.761719 C 263.554688 239.992188 261.472656 240.828125 260.703125 242.625 C 259.933594 244.421875 260.769531 246.503906 262.566406 247.273438 C 264.363281 248.042969 266.445312 247.207031 267.214844 245.410156 C 267.984375 243.613281 267.148438 241.53125 265.351562 240.761719 Z M 265.351562 240.761719 "/></clipPath><clipPath id="d6c6d2de51"><path d="M 238 225 L 251 225 L 251 239 L 238 239 Z M 238 225 "/></clipPath><clipPath id="0d4c9a013c"><path d="M 241.078125 223.644531 L 252.65625 228.597656 L 247.703125 240.175781 L 236.125 235.222656 Z M 241.078125 223.644531 "/></clipPath><clipPath id="396ea98b96"><path d="M 246.867188 226.121094 C 243.667969 224.75 239.96875 226.234375 238.601562 229.433594 C 237.234375 232.628906 238.714844 236.332031 241.914062 237.699219 C 245.113281 239.066406 248.8125 237.582031 250.179688 234.386719 C 251.550781 231.1875 250.066406 227.488281 246.867188 226.121094 Z M 246.867188 226.121094 "/></clipPath><clipPath id="ffb5cfc8c5"><path d="M 240 228 L 248 228 L 248 236 L 240 236 Z M 240 228 "/></clipPath><clipPath id="10259041ce"><path d="M 242.527344 227.261719 L 249.039062 230.046875 L 246.253906 236.554688 L 239.746094 233.773438 Z M 242.527344 227.261719 "/></clipPath><clipPath id="1495336108"><path d="M 245.785156 228.652344 C 243.988281 227.882812 241.90625 228.71875 241.136719 230.515625 C 240.367188 232.3125 241.203125 234.394531 243 235.164062 C 244.796875 235.933594 246.878906 235.097656 247.648438 233.300781 C 248.417969 231.503906 247.582031 229.421875 245.785156 228.652344 Z M 245.785156 228.652344 "/></clipPath><clipPath id="8692ec2567"><path d="M 252 223 L 266 223 L 266 237 L 252 237 Z M 252 223 "/></clipPath><clipPath id="aea41eb36a"><path d="M 255.71875 221.441406 L 267.296875 226.394531 L 262.34375 237.976562 L 250.765625 233.023438 Z M 255.71875 221.441406 "/></clipPath><clipPath id="aa8cffdcec"><path d="M 261.507812 223.917969 C 258.308594 222.550781 254.609375 224.035156 253.242188 227.234375 C 251.871094 230.429688 253.355469 234.132812 256.554688 235.5 C 259.753906 236.867188 263.453125 235.382812 264.820312 232.1875 C 266.1875 228.988281 264.707031 225.285156 261.507812 223.917969 Z M 261.507812 223.917969 "/></clipPath><clipPath id="be4ce6af37"><path d="M 255 226 L 263 226 L 263 234 L 255 234 Z M 255 226 "/></clipPath><clipPath id="4b80042a67"><path d="M 257.167969 225.058594 L 263.679688 227.84375 L 260.894531 234.355469 L 254.382812 231.570312 Z M 257.167969 225.058594 "/></clipPath><clipPath id="743e498660"><path d="M 260.425781 226.453125 C 258.625 225.683594 256.546875 226.519531 255.777344 228.316406 C 255.007812 230.113281 255.839844 232.195312 257.640625 232.964844 C 259.4375 233.734375 261.519531 232.898438 262.289062 231.101562 C 263.058594 229.304688 262.222656 227.222656 260.425781 226.453125 Z M 260.425781 226.453125 "/></clipPath><clipPath id="e31e027ebe"><path d="M 267 221 L 281 221 L 281 234 L 267 234 Z M 267 221 "/></clipPath><clipPath id="a40d876ec9"><path d="M 270.390625 219.160156 L 281.972656 224.113281 L 277.019531 235.695312 L 265.4375 230.742188 Z M 270.390625 219.160156 "/></clipPath><clipPath id="0f11ef65c0"><path d="M 276.183594 221.636719 C 272.984375 220.269531 269.28125 221.753906 267.914062 224.953125 C 266.546875 228.148438 268.03125 231.851562 271.230469 233.21875 C 274.425781 234.585938 278.128906 233.101562 279.496094 229.90625 C 280.863281 226.707031 279.378906 223.007812 276.183594 221.636719 Z M 276.183594 221.636719 "/></clipPath><clipPath id="81facafef5"><path d="M 270 223 L 278 223 L 278 231 L 270 231 Z M 270 223 "/></clipPath><clipPath id="33b06d6f80"><path d="M 271.84375 222.78125 L 278.355469 225.566406 L 275.570312 232.074219 L 269.058594 229.292969 Z M 271.84375 222.78125 "/></clipPath><clipPath id="be5c5cf94a"><path d="M 275.097656 224.171875 C 273.300781 223.402344 271.21875 224.238281 270.449219 226.035156 C 269.683594 227.832031 270.515625 229.914062 272.3125 230.683594 C 274.113281 231.453125 276.191406 230.617188 276.960938 228.820312 C 277.730469 227.023438 276.898438 224.941406 275.097656 224.171875 Z M 275.097656 224.171875 "/></clipPath></defs><g id="8d460727c5"><g style="fill:#ededed;fill-opacity:1;"><g transform="translate(25.886722, 215.249986)"><path style="stroke:none" d="M 38.84375 -30.078125 L 69.59375 -30.078125 L 69.59375 0 L 56.171875 0 L 55.34375 -6.109375 C 52.96875 -3.734375 50.050781 -1.894531 46.59375 -0.59375 C 43.132812 0.695312 39.15625 1.34375 34.65625 1.34375 C 28.726562 1.34375 23.316406 0.207031 18.421875 -2.0625 C 13.535156 -4.332031 9.65625 -7.6875 6.78125 -12.125 C 3.90625 -16.5625 2.46875 -21.894531 2.46875 -28.125 C 2.46875 -34.375 3.925781 -39.71875 6.84375 -44.15625 C 9.757812 -48.59375 13.726562 -51.941406 18.75 -54.203125 C 23.769531 -56.460938 29.421875 -57.59375 35.703125 -57.59375 C 42.003906 -57.59375 47.503906 -56.648438 52.203125 -54.765625 C 56.898438 -52.878906 60.660156 -50.253906 63.484375 -46.890625 C 66.304688 -43.523438 68.195312 -39.617188 69.15625 -35.171875 L 49.71875 -35.171875 C 49.019531 -37.242188 47.421875 -38.863281 44.921875 -40.03125 C 42.421875 -41.195312 39.394531 -41.78125 35.84375 -41.78125 C 31.375 -41.78125 27.921875 -40.644531 25.484375 -38.375 C 23.046875 -36.113281 21.828125 -32.695312 21.828125 -28.125 C 21.828125 -23.394531 23.203125 -19.863281 25.953125 -17.53125 C 28.703125 -15.195312 32.601562 -14.03125 37.65625 -14.03125 C 41.070312 -14.03125 44.054688 -14.453125 46.609375 -15.296875 C 49.160156 -16.148438 51.148438 -17.425781 52.578125 -19.125 L 38.84375 -19.125 Z M 38.84375 -30.078125 "/></g></g><g style="fill:#ededed;fill-opacity:1;"><g transform="translate(99.086653, 215.249986)"><path style="stroke:none" d="M 29.921875 1.34375 C 24.597656 1.34375 19.804688 0.382812 15.546875 -1.53125 C 11.285156 -3.457031 7.941406 -6.171875 5.515625 -9.671875 C 3.085938 -13.171875 1.875 -17.195312 1.875 -21.75 C 1.875 -26.195312 3.054688 -30.144531 5.421875 -33.59375 C 7.785156 -37.050781 11.019531 -39.726562 15.125 -41.625 C 19.238281 -43.519531 23.847656 -44.46875 28.953125 -44.46875 C 34.222656 -44.46875 38.75 -43.375 42.53125 -41.1875 C 46.320312 -39 49.21875 -35.882812 51.21875 -31.84375 C 53.21875 -27.8125 54.21875 -23.046875 54.21875 -17.546875 L 21.34375 -17.546875 C 23.289062 -13.546875 27.898438 -11.546875 35.171875 -11.546875 C 38.367188 -11.546875 41.503906 -11.957031 44.578125 -12.78125 C 47.660156 -13.613281 50.523438 -14.800781 53.171875 -16.34375 L 53.171875 -5.546875 C 50.023438 -3.328125 46.421875 -1.625 42.359375 -0.4375 C 38.296875 0.75 34.148438 1.34375 29.921875 1.34375 Z M 37.390625 -26.328125 C 36.734375 -28.296875 35.710938 -29.785156 34.328125 -30.796875 C 32.941406 -31.816406 31.222656 -32.328125 29.171875 -32.328125 C 27.046875 -32.328125 25.269531 -31.785156 23.84375 -30.703125 C 22.425781 -29.628906 21.425781 -28.171875 20.84375 -26.328125 Z M 37.390625 -26.328125 "/></g></g><g style="fill:#ededed;fill-opacity:1;"><g transform="translate(155.336592, 215.249986)"><path style="stroke:none" d="M 20.625 -43.125 L 21.96875 -34.953125 C 23.875 -38.078125 26.265625 -40.441406 29.140625 -42.046875 C 32.015625 -43.660156 35.148438 -44.46875 38.546875 -44.46875 C 42.703125 -44.46875 46.265625 -43.632812 49.234375 -41.96875 C 52.210938 -40.3125 54.488281 -37.960938 56.0625 -34.921875 C 57.632812 -31.890625 58.421875 -28.347656 58.421875 -24.296875 L 58.421875 0 L 39.375 0 L 39.375 -21.59375 C 39.375 -24 38.710938 -25.847656 37.390625 -27.140625 C 36.066406 -28.441406 34.203125 -29.09375 31.796875 -29.09375 C 29.222656 -29.09375 27.21875 -28.34375 25.78125 -26.84375 C 24.34375 -25.34375 23.625 -23.242188 23.625 -20.546875 L 23.625 0 L 4.578125 0 L 4.578125 -27.671875 L 1.578125 -43.125 Z M 20.625 -43.125 "/></g></g><g style="fill:#8b5cf6;fill-opacity:1;"><g transform="translate(216.84374, 215.249986)"><path style="stroke:none" d="M 34.421875 -57.59375 C 40.921875 -57.59375 46.421875 -56.9375 50.921875 -55.625 C 55.421875 -54.3125 58.820312 -52.414062 61.125 -49.9375 C 63.425781 -47.46875 64.578125 -44.5 64.578125 -41.03125 C 64.578125 -38 63.609375 -35.484375 61.671875 -33.484375 C 59.734375 -31.484375 56.925781 -30.035156 53.25 -29.140625 C 57.375 -28.316406 60.53125 -26.769531 62.71875 -24.5 C 64.90625 -22.238281 66 -19.320312 66 -15.75 C 66 -10.144531 63.320312 -5.894531 57.96875 -3 C 52.625 -0.101562 44.773438 1.34375 34.421875 1.34375 C 24.078125 1.34375 16.226562 -0.101562 10.875 -3 C 5.519531 -5.894531 2.84375 -10.144531 2.84375 -15.75 C 2.84375 -19.320312 3.9375 -22.238281 6.125 -24.5 C 8.3125 -26.769531 11.46875 -28.316406 15.59375 -29.140625 C 11.925781 -30.035156 9.125 -31.484375 7.1875 -33.484375 C 5.25 -35.484375 4.28125 -38 4.28125 -41.03125 C 4.28125 -44.5 5.425781 -47.46875 7.71875 -49.9375 C 10.019531 -52.414062 13.421875 -54.3125 17.921875 -55.625 C 22.421875 -56.9375 27.921875 -57.59375 34.421875 -57.59375 Z M 22.421875 -17.625 C 22.421875 -16.144531 23.4375 -15.023438 25.46875 -14.265625 C 27.507812 -13.503906 30.492188 -13.125 34.421875 -13.125 C 38.347656 -13.125 41.328125 -13.503906 43.359375 -14.265625 C 45.398438 -15.023438 46.421875 -16.144531 46.421875 -17.625 C 46.421875 -19.070312 45.40625 -20.171875 43.375 -20.921875 C 41.351562 -21.671875 38.367188 -22.046875 34.421875 -22.046875 C 30.472656 -22.046875 27.484375 -21.671875 25.453125 -20.921875 C 23.429688 -20.171875 22.421875 -19.070312 22.421875 -17.625 Z M 23.46875 -38.921875 C 23.46875 -37.578125 24.398438 -36.539062 26.265625 -35.8125 C 28.128906 -35.082031 30.847656 -34.71875 34.421875 -34.71875 C 37.992188 -34.71875 40.710938 -35.082031 42.578125 -35.8125 C 44.441406 -36.539062 45.375 -37.578125 45.375 -38.921875 C 45.375 -40.273438 44.441406 -41.3125 42.578125 -42.03125 C 40.710938 -42.757812 37.992188 -43.125 34.421875 -43.125 C 30.847656 -43.125 28.128906 -42.757812 26.265625 -42.03125 C 24.398438 -41.3125 23.46875 -40.273438 23.46875 -38.921875 Z M 23.46875 -38.921875 "/></g></g><g style="fill:#ededed;fill-opacity:1;"><g transform="translate(285.703111, 215.249986)"><path style="stroke:none" d="M 20.625 -43.125 L 21.96875 -34.953125 C 23.875 -38.078125 26.265625 -40.441406 29.140625 -42.046875 C 32.015625 -43.660156 35.148438 -44.46875 38.546875 -44.46875 C 42.703125 -44.46875 46.265625 -43.632812 49.234375 -41.96875 C 52.210938 -40.3125 54.488281 -37.960938 56.0625 -34.921875 C 57.632812 -31.890625 58.421875 -28.347656 58.421875 -24.296875 L 58.421875 0 L 39.375 0 L 39.375 -21.59375 C 39.375 -24 38.710938 -25.847656 37.390625 -27.140625 C 36.066406 -28.441406 34.203125 -29.09375 31.796875 -29.09375 C 29.222656 -29.09375 27.21875 -28.34375 25.78125 -26.84375 C 24.34375 -25.34375 23.625 -23.242188 23.625 -20.546875 L 23.625 0 L 4.578125 0 L 4.578125 -27.671875 L 1.578125 -43.125 Z M 20.625 -43.125 "/></g></g><g clip-rule="nonzero" clip-path="url(#84bf36174c)"><g clip-rule="nonzero" clip-path="url(#6064b79ee3)"><g clip-rule="nonzero" clip-path="url(#d9e2eb2a9e)"><path style=" stroke:none;fill-rule:nonzero;fill:#8b5cf6;fill-opacity:1;" d="M 227.605469 217.882812 L 239.1875 222.835938 L 234.234375 234.414062 L 222.652344 229.460938 Z M 227.605469 217.882812 "/></g></g></g><g clip-rule="nonzero" clip-path="url(#e141c86faf)"><g clip-rule="nonzero" clip-path="url(#339580dad7)"><g clip-rule="nonzero" clip-path="url(#2ce587cd2e)"><path style=" stroke:none;fill-rule:nonzero;fill:#121213;fill-opacity:1;" d="M 229.058594 221.5 L 235.570312 224.285156 L 232.785156 230.796875 L 226.273438 228.011719 Z M 229.058594 221.5 "/></g></g></g><g clip-rule="nonzero" clip-path="url(#6b6e33f402)"><g clip-rule="nonzero" clip-path="url(#71be24319a)"><g clip-rule="nonzero" clip-path="url(#df371aa60b)"><path style=" stroke:none;fill-rule:nonzero;fill:#8b5cf6;fill-opacity:1;" d="M 260.644531 235.75 L 272.222656 240.703125 L 267.269531 252.285156 L 255.691406 247.332031 Z M 260.644531 235.75 "/></g></g></g><g clip-rule="nonzero" clip-path="url(#ba2afa8ede)"><g clip-rule="nonzero" clip-path="url(#4da217f0fb)"><g clip-rule="nonzero" clip-path="url(#26452ebc3c)"><path style=" stroke:none;fill-rule:nonzero;fill:#121213;fill-opacity:1;" d="M 262.09375 239.371094 L 268.605469 242.152344 L 265.820312 248.664062 L 259.3125 245.878906 Z M 262.09375 239.371094 "/></g></g></g><g clip-rule="nonzero" clip-path="url(#d6c6d2de51)"><g clip-rule="nonzero" clip-path="url(#0d4c9a013c)"><g clip-rule="nonzero" clip-path="url(#396ea98b96)"><path style=" stroke:none;fill-rule:nonzero;fill:#8b5cf6;fill-opacity:1;" d="M 241.078125 223.644531 L 252.65625 228.597656 L 247.703125 240.175781 L 236.125 235.222656 Z M 241.078125 223.644531 "/></g></g></g><g clip-rule="nonzero" clip-path="url(#ffb5cfc8c5)"><g clip-rule="nonzero" clip-path="url(#10259041ce)"><g clip-rule="nonzero" clip-path="url(#1495336108)"><path style=" stroke:none;fill-rule:nonzero;fill:#121213;fill-opacity:1;" d="M 242.527344 227.261719 L 249.039062 230.046875 L 246.253906 236.554688 L 239.746094 233.773438 Z M 242.527344 227.261719 "/></g></g></g><g clip-rule="nonzero" clip-path="url(#8692ec2567)"><g clip-rule="nonzero" clip-path="url(#aea41eb36a)"><g clip-rule="nonzero" clip-path="url(#aa8cffdcec)"><path style=" stroke:none;fill-rule:nonzero;fill:#8b5cf6;fill-opacity:1;" d="M 255.71875 221.441406 L 267.296875 226.394531 L 262.34375 237.976562 L 250.765625 233.023438 Z M 255.71875 221.441406 "/></g></g></g><g clip-rule="nonzero" clip-path="url(#be4ce6af37)"><g clip-rule="nonzero" clip-path="url(#4b80042a67)"><g clip-rule="nonzero" clip-path="url(#743e498660)"><path style=" stroke:none;fill-rule:nonzero;fill:#121213;fill-opacity:1;" d="M 257.167969 225.058594 L 263.679688 227.84375 L 260.894531 234.355469 L 254.382812 231.570312 Z M 257.167969 225.058594 "/></g></g></g><g clip-rule="nonzero" clip-path="url(#e31e027ebe)"><g clip-rule="nonzero" clip-path="url(#a40d876ec9)"><g clip-rule="nonzero" clip-path="url(#0f11ef65c0)"><path style=" stroke:none;fill-rule:nonzero;fill:#8b5cf6;fill-opacity:1;" d="M 270.390625 219.160156 L 281.972656 224.113281 L 277.019531 235.695312 L 265.4375 230.742188 Z M 270.390625 219.160156 "/></g></g></g><g clip-rule="nonzero" clip-path="url(#81facafef5)"><g clip-rule="nonzero" clip-path="url(#33b06d6f80)"><g clip-rule="nonzero" clip-path="url(#be5c5cf94a)"><path style=" stroke:none;fill-rule:nonzero;fill:#121213;fill-opacity:1;" d="M 271.84375 222.78125 L 278.355469 225.566406 L 275.570312 232.074219 L 269.058594 229.292969 Z M 271.84375 222.78125 "/></g></g></g></g></svg>