<svg xmlns="http://www.w3.org/2000/svg" xmlns:xlink="http://www.w3.org/1999/xlink" width="350" zoomAndPan="magnify" viewBox="0 0 262.5 74.999997" height="100" preserveAspectRatio="xMidYMid meet" version="1.2"><defs><clipPath id="5274d865d8"><path d="M 156 53 L 166 53 L 166 62 L 156 62 Z M 156 53 "/></clipPath><clipPath id="72d661732b"><path d="M 158.632812 51.773438 L 166.425781 55.109375 L 163.09375 62.902344 L 155.296875 59.566406 Z M 158.632812 51.773438 "/></clipPath><clipPath id="991476b2b6"><path d="M 162.527344 53.441406 C 160.375 52.519531 157.886719 53.519531 156.964844 55.671875 C 156.042969 57.824219 157.042969 60.3125 159.195312 61.234375 C 161.347656 62.15625 163.839844 61.15625 164.757812 59.003906 C 165.679688 56.851562 164.679688 54.359375 162.527344 53.441406 Z M 162.527344 53.441406 "/></clipPath><clipPath id="da77770908"><path d="M 158 54 L 164 54 L 164 60 L 158 60 Z M 158 54 "/></clipPath><clipPath id="b1dc7b9885"><path d="M 159.609375 54.207031 L 163.992188 56.082031 L 162.117188 60.464844 L 157.734375 58.589844 Z M 159.609375 54.207031 "/></clipPath><clipPath id="2b987942df"><path d="M 161.800781 55.144531 C 160.589844 54.628906 159.1875 55.191406 158.671875 56.398438 C 158.152344 57.609375 158.714844 59.011719 159.925781 59.527344 C 161.136719 60.046875 162.535156 59.484375 163.054688 58.273438 C 163.570312 57.0625 163.011719 55.664062 161.800781 55.144531 Z M 161.800781 55.144531 "/></clipPath><clipPath id="94b0a35ca4"><path d="M 178 65 L 188 65 L 188 74 L 178 74 Z M 178 65 "/></clipPath><clipPath id="a45cea0614"><path d="M 180.867188 63.800781 L 188.660156 67.136719 L 185.328125 74.929688 L 177.535156 71.597656 Z M 180.867188 63.800781 "/></clipPath><clipPath id="cd6cc0bc83"><path d="M 184.765625 65.46875 C 182.613281 64.546875 180.121094 65.546875 179.199219 67.699219 C 178.28125 69.851562 179.277344 72.34375 181.429688 73.261719 C 183.582031 74.183594 186.074219 73.183594 186.996094 71.03125 C 187.914062 68.878906 186.917969 66.390625 184.765625 65.46875 Z M 184.765625 65.46875 "/></clipPath><clipPath id="dc139c7e9e"><path d="M 180 66 L 186 66 L 186 72 L 180 72 Z M 180 66 "/></clipPath><clipPath id="b4d31fc4df"><path d="M 181.84375 66.238281 L 186.226562 68.109375 L 184.351562 72.492188 L 179.96875 70.617188 Z M 181.84375 66.238281 "/></clipPath><clipPath id="030488932b"><path d="M 184.035156 67.171875 C 182.824219 66.65625 181.425781 67.21875 180.90625 68.429688 C 180.390625 69.636719 180.953125 71.039062 182.160156 71.554688 C 183.371094 72.074219 184.773438 71.511719 185.289062 70.300781 C 185.808594 69.09375 185.246094 67.691406 184.035156 67.171875 Z M 184.035156 67.171875 "/></clipPath><clipPath id="0c7e95201a"><path d="M 165 56 L 175 56 L 175 66 L 165 66 Z M 165 56 "/></clipPath><clipPath id="478db2b8fe"><path d="M 167.699219 55.652344 L 175.492188 58.984375 L 172.160156 66.78125 L 164.363281 63.445312 Z M 167.699219 55.652344 "/></clipPath><clipPath id="971a297e17"><path d="M 171.59375 57.320312 C 169.441406 56.398438 166.953125 57.394531 166.03125 59.546875 C 165.109375 61.699219 166.109375 64.191406 168.261719 65.113281 C 170.414062 66.035156 172.90625 65.035156 173.824219 62.882812 C 174.746094 60.730469 173.746094 58.238281 171.59375 57.320312 Z M 171.59375 57.320312 "/></clipPath><clipPath id="285725f027"><path d="M 167 58 L 173 58 L 173 64 L 167 64 Z M 167 58 "/></clipPath><clipPath id="ca179b2d61"><path d="M 168.675781 58.085938 L 173.058594 59.960938 L 171.183594 64.34375 L 166.800781 62.46875 Z M 168.675781 58.085938 "/></clipPath><clipPath id="db6554510b"><path d="M 170.867188 59.023438 C 169.65625 58.507812 168.253906 59.066406 167.738281 60.277344 C 167.21875 61.488281 167.78125 62.886719 168.992188 63.40625 C 170.203125 63.925781 171.601562 63.363281 172.121094 62.152344 C 172.636719 60.941406 172.078125 59.542969 170.867188 59.023438 Z M 170.867188 59.023438 "/></clipPath><clipPath id="1a3afa0d79"><path d="M 175 55 L 185 55 L 185 64 L 175 64 Z M 175 55 "/></clipPath><clipPath id="a8f7097739"><path d="M 177.550781 54.171875 L 185.347656 57.503906 L 182.011719 65.300781 L 174.21875 61.964844 Z M 177.550781 54.171875 "/></clipPath><clipPath id="547165fb34"><path d="M 181.449219 55.835938 C 179.296875 54.917969 176.804688 55.914062 175.882812 58.066406 C 174.964844 60.21875 175.960938 62.710938 178.113281 63.632812 C 180.265625 64.550781 182.757812 63.554688 183.679688 61.402344 C 184.601562 59.25 183.601562 56.757812 181.449219 55.835938 Z M 181.449219 55.835938 "/></clipPath><clipPath id="871b33da0f"><path d="M 177 57 L 183 57 L 183 63 L 177 63 Z M 177 57 "/></clipPath><clipPath id="e28df867d7"><path d="M 178.527344 56.605469 L 182.910156 58.480469 L 181.035156 62.863281 L 176.652344 60.988281 Z M 178.527344 56.605469 "/></clipPath><clipPath id="3804111050"><path d="M 180.71875 57.542969 C 179.511719 57.023438 178.109375 57.585938 177.589844 58.796875 C 177.074219 60.007812 177.636719 61.40625 178.84375 61.925781 C 180.054688 62.441406 181.457031 61.882812 181.972656 60.671875 C 182.492188 59.460938 181.929688 58.0625 180.71875 57.542969 Z M 180.71875 57.542969 "/></clipPath><clipPath id="262097a55e"><path d="M 185 53 L 194 53 L 194 63 L 185 63 Z M 185 53 "/></clipPath><clipPath id="b8753389ab"><path d="M 187.429688 52.636719 L 195.222656 55.96875 L 191.890625 63.765625 L 184.09375 60.429688 Z M 187.429688 52.636719 "/></clipPath><clipPath id="b074c1a6c5"><path d="M 191.324219 54.300781 C 189.171875 53.382812 186.683594 54.378906 185.761719 56.53125 C 184.839844 58.683594 185.839844 61.175781 187.992188 62.097656 C 190.144531 63.019531 192.636719 62.019531 193.554688 59.867188 C 194.476562 57.714844 193.476562 55.222656 191.324219 54.300781 Z M 191.324219 54.300781 "/></clipPath><clipPath id="bee6a11123"><path d="M 187 55 L 193 55 L 193 61 L 187 61 Z M 187 55 "/></clipPath><clipPath id="5bc39c5202"><path d="M 188.40625 55.070312 L 192.789062 56.945312 L 190.914062 61.328125 L 186.53125 59.453125 Z M 188.40625 55.070312 "/></clipPath><clipPath id="65b14b8241"><path d="M 190.597656 56.007812 C 189.386719 55.492188 187.984375 56.050781 187.46875 57.261719 C 186.949219 58.472656 187.511719 59.871094 188.722656 60.390625 C 189.933594 60.90625 191.332031 60.347656 191.851562 59.136719 C 192.367188 57.925781 191.808594 56.527344 190.597656 56.007812 Z M 190.597656 56.007812 "/></clipPath></defs><g id="efc7d365fc"><g style="fill:#ededed;fill-opacity:1;"><g transform="translate(22.86014, 50.002709)"><path style="stroke:none" d="M 26.15625 -20.25 L 46.84375 -20.25 L 46.84375 0 L 37.8125 0 L 37.25 -4.109375 C 35.65625 -2.515625 33.691406 -1.28125 31.359375 -0.40625 C 29.035156 0.46875 26.359375 0.90625 23.328125 0.90625 C 19.335938 0.90625 15.695312 0.140625 12.40625 -1.390625 C 9.113281 -2.921875 6.5 -5.175781 4.5625 -8.15625 C 2.632812 -11.144531 1.671875 -14.738281 1.671875 -18.9375 C 1.671875 -23.132812 2.648438 -26.726562 4.609375 -29.71875 C 6.566406 -32.707031 9.234375 -34.960938 12.609375 -36.484375 C 15.992188 -38.003906 19.800781 -38.765625 24.03125 -38.765625 C 28.269531 -38.765625 31.96875 -38.128906 35.125 -36.859375 C 38.289062 -35.585938 40.828125 -33.820312 42.734375 -31.5625 C 44.640625 -29.300781 45.910156 -26.671875 46.546875 -23.671875 L 33.46875 -23.671875 C 33 -25.066406 31.921875 -26.15625 30.234375 -26.9375 C 28.554688 -27.726562 26.519531 -28.125 24.125 -28.125 C 21.113281 -28.125 18.785156 -27.359375 17.140625 -25.828125 C 15.503906 -24.304688 14.6875 -22.007812 14.6875 -18.9375 C 14.6875 -15.75 15.613281 -13.367188 17.46875 -11.796875 C 19.320312 -10.222656 21.945312 -9.4375 25.34375 -9.4375 C 27.644531 -9.4375 29.65625 -9.722656 31.375 -10.296875 C 33.09375 -10.867188 34.429688 -11.726562 35.390625 -12.875 L 26.15625 -12.875 Z M 26.15625 -20.25 "/></g></g><g style="fill:#ededed;fill-opacity:1;"><g transform="translate(72.128634, 50.002709)"><path style="stroke:none" d="M 20.140625 0.90625 C 16.554688 0.90625 13.328125 0.257812 10.453125 -1.03125 C 7.585938 -2.332031 5.335938 -4.160156 3.703125 -6.515625 C 2.078125 -8.867188 1.265625 -11.578125 1.265625 -14.640625 C 1.265625 -17.640625 2.054688 -20.296875 3.640625 -22.609375 C 5.234375 -24.929688 7.414062 -26.734375 10.1875 -28.015625 C 12.957031 -29.296875 16.054688 -29.9375 19.484375 -29.9375 C 23.035156 -29.9375 26.085938 -29.195312 28.640625 -27.71875 C 31.191406 -26.25 33.140625 -24.15625 34.484375 -21.4375 C 35.828125 -18.71875 36.5 -15.507812 36.5 -11.8125 L 14.359375 -11.8125 C 15.671875 -9.125 18.773438 -7.78125 23.671875 -7.78125 C 25.828125 -7.78125 27.941406 -8.054688 30.015625 -8.609375 C 32.085938 -9.160156 34.015625 -9.957031 35.796875 -11 L 35.796875 -3.734375 C 33.671875 -2.234375 31.238281 -1.082031 28.5 -0.28125 C 25.769531 0.507812 22.984375 0.90625 20.140625 0.90625 Z M 25.171875 -17.71875 C 24.734375 -19.050781 24.046875 -20.054688 23.109375 -20.734375 C 22.171875 -21.421875 21.015625 -21.765625 19.640625 -21.765625 C 18.210938 -21.765625 17.015625 -21.398438 16.046875 -20.671875 C 15.085938 -19.953125 14.414062 -18.96875 14.03125 -17.71875 Z M 25.171875 -17.71875 "/></g></g><g style="fill:#ededed;fill-opacity:1;"><g transform="translate(109.988639, 50.002709)"><path style="stroke:none" d="M 13.890625 -29.03125 L 14.796875 -23.53125 C 16.066406 -25.632812 17.671875 -27.226562 19.609375 -28.3125 C 21.546875 -29.394531 23.660156 -29.9375 25.953125 -29.9375 C 28.742188 -29.9375 31.140625 -29.375 33.140625 -28.25 C 35.140625 -27.132812 36.671875 -25.554688 37.734375 -23.515625 C 38.796875 -21.472656 39.328125 -19.085938 39.328125 -16.359375 L 39.328125 0 L 26.5 0 L 26.5 -14.546875 C 26.5 -16.160156 26.050781 -17.40625 25.15625 -18.28125 C 24.269531 -19.15625 23.019531 -19.59375 21.40625 -19.59375 C 19.675781 -19.59375 18.328125 -19.085938 17.359375 -18.078125 C 16.390625 -17.066406 15.90625 -15.648438 15.90625 -13.828125 L 15.90625 0 L 3.078125 0 L 3.078125 -18.625 L 1.0625 -29.03125 Z M 13.890625 -29.03125 "/></g></g><g style="fill:#8b5cf6;fill-opacity:1;"><g transform="translate(151.387101, 50.002709)"><path style="stroke:none" d="M 23.171875 -38.765625 C 27.546875 -38.765625 31.25 -38.320312 34.28125 -37.4375 C 37.3125 -36.5625 39.597656 -35.289062 41.140625 -33.625 C 42.691406 -31.957031 43.46875 -29.953125 43.46875 -27.609375 C 43.46875 -25.578125 42.8125 -23.882812 41.5 -22.53125 C 40.195312 -21.1875 38.3125 -20.210938 35.84375 -19.609375 C 38.625 -19.054688 40.75 -18.019531 42.21875 -16.5 C 43.6875 -14.976562 44.421875 -13.015625 44.421875 -10.609375 C 44.421875 -6.835938 42.617188 -3.972656 39.015625 -2.015625 C 35.421875 -0.0664062 30.140625 0.90625 23.171875 0.90625 C 16.203125 0.90625 10.914062 -0.0664062 7.3125 -2.015625 C 3.71875 -3.972656 1.921875 -6.835938 1.921875 -10.609375 C 1.921875 -13.015625 2.65625 -14.976562 4.125 -16.5 C 5.59375 -18.019531 7.71875 -19.054688 10.5 -19.609375 C 8.03125 -20.210938 6.140625 -21.1875 4.828125 -22.53125 C 3.523438 -23.882812 2.875 -25.578125 2.875 -27.609375 C 2.875 -29.953125 3.644531 -31.957031 5.1875 -33.625 C 6.738281 -35.289062 9.03125 -36.5625 12.0625 -37.4375 C 15.09375 -38.320312 18.796875 -38.765625 23.171875 -38.765625 Z M 15.09375 -11.859375 C 15.09375 -10.867188 15.773438 -10.113281 17.140625 -9.59375 C 18.515625 -9.082031 20.523438 -8.828125 23.171875 -8.828125 C 25.816406 -8.828125 27.820312 -9.082031 29.1875 -9.59375 C 30.5625 -10.113281 31.25 -10.867188 31.25 -11.859375 C 31.25 -12.835938 30.566406 -13.578125 29.203125 -14.078125 C 27.835938 -14.585938 25.828125 -14.84375 23.171875 -14.84375 C 20.515625 -14.84375 18.503906 -14.585938 17.140625 -14.078125 C 15.773438 -13.578125 15.09375 -12.835938 15.09375 -11.859375 Z M 15.796875 -26.203125 C 15.796875 -25.296875 16.421875 -24.597656 17.671875 -24.109375 C 18.929688 -23.617188 20.765625 -23.375 23.171875 -23.375 C 25.578125 -23.375 27.40625 -23.617188 28.65625 -24.109375 C 29.914062 -24.597656 30.546875 -25.296875 30.546875 -26.203125 C 30.546875 -27.109375 29.914062 -27.804688 28.65625 -28.296875 C 27.40625 -28.785156 25.578125 -29.03125 23.171875 -29.03125 C 20.765625 -29.03125 18.929688 -28.785156 17.671875 -28.296875 C 16.421875 -27.804688 15.796875 -27.109375 15.796875 -26.203125 Z M 15.796875 -26.203125 "/></g></g><g style="fill:#ededed;fill-opacity:1;"><g transform="translate(197.734104, 50.002709)"><path style="stroke:none" d="M 13.890625 -29.03125 L 14.796875 -23.53125 C 16.066406 -25.632812 17.671875 -27.226562 19.609375 -28.3125 C 21.546875 -29.394531 23.660156 -29.9375 25.953125 -29.9375 C 28.742188 -29.9375 31.140625 -29.375 33.140625 -28.25 C 35.140625 -27.132812 36.671875 -25.554688 37.734375 -23.515625 C 38.796875 -21.472656 39.328125 -19.085938 39.328125 -16.359375 L 39.328125 0 L 26.5 0 L 26.5 -14.546875 C 26.5 -16.160156 26.050781 -17.40625 25.15625 -18.28125 C 24.269531 -19.15625 23.019531 -19.59375 21.40625 -19.59375 C 19.675781 -19.59375 18.328125 -19.085938 17.359375 -18.078125 C 16.390625 -17.066406 15.90625 -15.648438 15.90625 -13.828125 L 15.90625 0 L 3.078125 0 L 3.078125 -18.625 L 1.0625 -29.03125 Z M 13.890625 -29.03125 "/></g></g><g clip-rule="nonzero" clip-path="url(#5274d865d8)"><g clip-rule="nonzero" clip-path="url(#72d661732b)"><g clip-rule="nonzero" clip-path="url(#991476b2b6)"><path style=" stroke:none;fill-rule:nonzero;fill:#8b5cf6;fill-opacity:1;" d="M 158.632812 51.773438 L 166.425781 55.109375 L 163.09375 62.902344 L 155.296875 59.566406 Z M 158.632812 51.773438 "/></g></g></g><g clip-rule="nonzero" clip-path="url(#da77770908)"><g clip-rule="nonzero" clip-path="url(#b1dc7b9885)"><g clip-rule="nonzero" clip-path="url(#2b987942df)"><path style=" stroke:none;fill-rule:nonzero;fill:#121213;fill-opacity:1;" d="M 159.609375 54.207031 L 163.992188 56.082031 L 162.117188 60.464844 L 157.734375 58.589844 Z M 159.609375 54.207031 "/></g></g></g><g clip-rule="nonzero" clip-path="url(#94b0a35ca4)"><g clip-rule="nonzero" clip-path="url(#a45cea0614)"><g clip-rule="nonzero" clip-path="url(#cd6cc0bc83)"><path style=" stroke:none;fill-rule:nonzero;fill:#8b5cf6;fill-opacity:1;" d="M 180.867188 63.800781 L 188.660156 67.136719 L 185.328125 74.929688 L 177.535156 71.597656 Z M 180.867188 63.800781 "/></g></g></g><g clip-rule="nonzero" clip-path="url(#dc139c7e9e)"><g clip-rule="nonzero" clip-path="url(#b4d31fc4df)"><g clip-rule="nonzero" clip-path="url(#030488932b)"><path style=" stroke:none;fill-rule:nonzero;fill:#121213;fill-opacity:1;" d="M 181.84375 66.238281 L 186.226562 68.109375 L 184.351562 72.492188 L 179.96875 70.617188 Z M 181.84375 66.238281 "/></g></g></g><g clip-rule="nonzero" clip-path="url(#0c7e95201a)"><g clip-rule="nonzero" clip-path="url(#478db2b8fe)"><g clip-rule="nonzero" clip-path="url(#971a297e17)"><path style=" stroke:none;fill-rule:nonzero;fill:#8b5cf6;fill-opacity:1;" d="M 167.699219 55.652344 L 175.492188 58.984375 L 172.160156 66.78125 L 164.363281 63.445312 Z M 167.699219 55.652344 "/></g></g></g><g clip-rule="nonzero" clip-path="url(#285725f027)"><g clip-rule="nonzero" clip-path="url(#ca179b2d61)"><g clip-rule="nonzero" clip-path="url(#db6554510b)"><path style=" stroke:none;fill-rule:nonzero;fill:#121213;fill-opacity:1;" d="M 168.675781 58.085938 L 173.058594 59.960938 L 171.183594 64.34375 L 166.800781 62.46875 Z M 168.675781 58.085938 "/></g></g></g><g clip-rule="nonzero" clip-path="url(#1a3afa0d79)"><g clip-rule="nonzero" clip-path="url(#a8f7097739)"><g clip-rule="nonzero" clip-path="url(#547165fb34)"><path style=" stroke:none;fill-rule:nonzero;fill:#8b5cf6;fill-opacity:1;" d="M 177.550781 54.171875 L 185.347656 57.503906 L 182.011719 65.300781 L 174.21875 61.964844 Z M 177.550781 54.171875 "/></g></g></g><g clip-rule="nonzero" clip-path="url(#871b33da0f)"><g clip-rule="nonzero" clip-path="url(#e28df867d7)"><g clip-rule="nonzero" clip-path="url(#3804111050)"><path style=" stroke:none;fill-rule:nonzero;fill:#121213;fill-opacity:1;" d="M 178.527344 56.605469 L 182.910156 58.480469 L 181.035156 62.863281 L 176.652344 60.988281 Z M 178.527344 56.605469 "/></g></g></g><g clip-rule="nonzero" clip-path="url(#262097a55e)"><g clip-rule="nonzero" clip-path="url(#b8753389ab)"><g clip-rule="nonzero" clip-path="url(#b074c1a6c5)"><path style=" stroke:none;fill-rule:nonzero;fill:#8b5cf6;fill-opacity:1;" d="M 187.429688 52.636719 L 195.222656 55.96875 L 191.890625 63.765625 L 184.09375 60.429688 Z M 187.429688 52.636719 "/></g></g></g><g clip-rule="nonzero" clip-path="url(#bee6a11123)"><g clip-rule="nonzero" clip-path="url(#5bc39c5202)"><g clip-rule="nonzero" clip-path="url(#65b14b8241)"><path style=" stroke:none;fill-rule:nonzero;fill:#121213;fill-opacity:1;" d="M 188.40625 55.070312 L 192.789062 56.945312 L 190.914062 61.328125 L 186.53125 59.453125 Z M 188.40625 55.070312 "/></g></g></g></g></svg>